HIERARCHY
ROOT Hips
{
    OFFSET 0.000000 0.000000 0.000000
    CHANNELS 6 Xposition Yposition Zposition Zrotation Xrotation Yrotation
    JOINT Spine
    {
        OFFSET -0.000000 14.517291 0.000000
        CHANNELS 3 Zrotation Xrotation Yrotation
        JOINT Spine1
        {
            OFFSET -0.000000 37.558300 0.000000
            CHANNELS 3 Zrotation Xrotation Yrotation
            JOINT Neck
            {
                OFFSET -0.000000 37.404057 3.400369
                CHANNELS 3 Zrotation Xrotation Yrotation
                JOINT Head
                {
                    OFFSET -0.000000 24.785618 -3.540803
                    CHANNELS 3 Zrotation Xrotation Yrotation
                    End Site
                    {
                        OFFSET -0.000000 35.408028 0.000000
                    }
                }
            }
            JOINT LeftShoulder
            {
                OFFSET 6.992933 33.973492 -0.192664
                CHANNELS 3 Zrotation Xrotation Yrotation
                JOINT LeftArm
                {
                    OFFSET 21.527611 0.000000 0.000000
                    CHANNELS 3 Zrotation Xrotation Yrotation
                    JOINT LeftForeArm
                    {
                        OFFSET 56.353916 0.000000 0.000000
                        CHANNELS 3 Zrotation Xrotation Yrotation
                        JOINT LeftHand
                        {
                            OFFSET 47.774071 0.000000 0.000000
                            CHANNELS 3 Zrotation Xrotation Yrotation
                            End Site
                            {
                                OFFSET 26.556021 0.000000 0.000000
                            }
                        }
                    }
                }
            }
            JOINT RightShoulder
            {
                OFFSET -7.065357 33.973492 -0.192664
                CHANNELS 3 Zrotation Xrotation Yrotation
                JOINT RightArm
                {
                    OFFSET -21.527611 0.000000 0.000000
                    CHANNELS 3 Zrotation Xrotation Yrotation
                    JOINT RightForeArm
                    {
                        OFFSET -56.353916 0.000000 0.000000
                        CHANNELS 3 Zrotation Xrotation Yrotation
                        JOINT RightHand
                        {
                            OFFSET -47.774071 0.000000 0.000000
                            CHANNELS 3 Zrotation Xrotation Yrotation
                            End Site
                            {
                                OFFSET -26.556021 0.000000 0.000000
                            }
                        }
                    }
                }
            }
        }
    }
    JOINT LeftUpLeg
    {
        OFFSET 17.704014 0.000000 0.000000
        CHANNELS 3 Zrotation Xrotation Yrotation
        JOINT LeftLeg
        {
            OFFSET -0.000000 -81.181816 0.000000
            CHANNELS 3 Zrotation Xrotation Yrotation
            JOINT LeftFoot
            {
                OFFSET -0.000000 -62.821102 0.000000
                CHANNELS 3 Zrotation Xrotation Yrotation
                JOINT LeftToeBase
                {
                    OFFSET -0.000000 -11.507608 26.556021
                    CHANNELS 3 Zrotation Xrotation Yrotation
                    End Site
                    {
                        OFFSET -0.000000 0.000000 7.081605
                    }
                }
            }
        }
    }
    JOINT RightUpLeg
    {
        OFFSET -17.704014 0.000000 0.000000
        CHANNELS 3 Zrotation Xrotation Yrotation
        JOINT RightLeg
        {
            OFFSET -0.000000 -81.181816 0.000000
            CHANNELS 3 Zrotation Xrotation Yrotation
            JOINT RightFoot
            {
                OFFSET -0.000000 -62.821102 0.000000
                CHANNELS 3 Zrotation Xrotation Yrotation
                JOINT RightToeBase
                {
                    OFFSET -0.000000 -11.507608 26.556021
                    CHANNELS 3 Zrotation Xrotation Yrotation
                    End Site
                    {
                        OFFSET -0.000000 0.000000 7.081605
                    }
                }
            }
        }
    }
}
MOTION
Frames:    10
Frame Time:    0.008333
27.932772    154.763489    -32.037426    2.510010    1.028399    -55.699917    3.558459    -0.272133    1.370346    -0.723161    1.487729    0.462700    16.473555    -0.209775    15.327394    -12.323730    11.702753    12.999572    11.456726    -0.796536    -19.957008    -10.572645    -17.907854    -40.679153    9.860997    -41.252743    -22.788931    -25.281929    -30.739079    -46.366081    -9.397173    2.371527    -1.467512    34.523022    6.589530    78.196671    8.154407    -0.422299    106.830887    3.096166    -10.867981    19.324715    21.361542    -24.190493    -0.296575    -13.335959    24.072935    -10.248513    -8.898544    -2.194218    38.737099    0.000000    0.000000    0.000000    -18.980804    -6.363541    -2.313545    3.481330    26.421484    2.870621    4.894334    -24.857401    -8.243296    0.000000    0.000000    0.000000    
27.954500    154.769531    -32.017498    2.490400    1.022941    -55.870918    3.586778    -0.283156    1.414599    -0.732721    1.496186    0.477422    16.466085    -0.190363    15.340212    -12.330370    11.706260    13.017159    11.440827    -0.789249    -19.888025    -10.612845    -17.916584    -40.682430    9.853567    -41.255333    -22.801521    -25.272696    -30.748745    -46.354050    -9.394258    2.407718    -1.438702    34.507969    6.615809    78.233955    8.132807    -0.463406    106.844521    3.134632    -10.875959    19.309525    21.418446    -24.110235    -0.204579    -13.355362    24.091518    -10.200420    -8.892501    -2.235710    38.758865    0.000000    0.000000    0.000000    -19.062250    -6.364439    -2.560029    3.477738    26.316427    2.809824    5.034261    -24.658834    -8.119987    0.000000    0.000000    0.000000    
27.977837    154.772980    -31.995565    2.473719    1.008959    -56.042953    3.601887    -0.289580    1.454386    -0.726147    1.479308    0.490433    16.456976    -0.110110    15.352687    -12.360230    11.678668    13.039355    11.393744    -0.757128    -19.860657    -10.634568    -17.963625    -40.641220    9.812757    -41.232220    -22.822536    -25.255117    -30.742092    -46.321762    -9.395140    2.448641    -1.358732    34.513725    6.638717    78.227997    8.119638    -0.479248    106.844620    3.142008    -10.871982    19.323240    21.462400    -24.028458    -0.125064    -13.374986    24.110428    -10.144663    -8.872918    -2.269268    38.776863    0.000000    0.000000    0.000000    -19.148598    -6.371826    -2.803997    3.465588    26.234922    2.864362    5.141071    -24.508867    -8.089205    0.000000    0.000000    0.000000    
27.993536    154.780548    -31.972980    2.456183    0.996621    -56.207207    3.622858    -0.306811    1.495905    -0.741065    1.508462    0.504519    16.487074    -0.073549    15.373592    -12.417753    11.650379    13.056742    11.387208    -0.763607    -19.794849    -10.672058    -17.964710    -40.635216    9.820933    -41.215160    -22.823853    -25.260843    -30.720594    -46.314407    -9.374797    2.455586    -1.325634    34.528095    6.677174    78.239349    8.094618    -0.494453    106.852631    3.166809    -10.851663    19.293985    21.504566    -23.939699    -0.058266    -13.388385    24.115028    -10.115844    -8.884918    -2.330315    38.820049    0.000000    0.000000    0.000000    -19.229128    -6.381023    -2.985023    3.479564    26.164621    2.839382    5.263218    -24.368328    -8.007928    0.000000    0.000000    0.000000    
28.004765    154.788208    -31.954664    2.437939    0.976149    -56.357792    3.621924    -0.316895    1.526812    -0.738113    1.536672    0.514783    16.519894    -0.050670    15.397448    -12.469155    11.639655    13.076955    11.378252    -0.776803    -19.725302    -10.713099    -17.983904    -40.632950    9.787025    -41.188282    -22.836430    -25.258301    -30.694731    -46.319130    -9.357690    2.484455    -1.307194    34.559597    6.707988    78.279518    8.085898    -0.502885    106.846024    3.184638    -10.843341    19.312237    21.534990    -23.846189    -0.037993    -13.418657    24.099455    -10.055756    -8.875737    -2.365977    38.873394    0.000000    0.000000    0.000000    -19.309809    -6.375707    -3.202087    3.482158    26.089914    2.782205    5.430338    -24.247229    -7.890504    0.000000    0.000000    0.000000    
28.015816    154.796249    -31.943550    2.433749    0.958875    -56.508770    3.608832    -0.327199    1.569062    -0.732379    1.537971    0.528720    16.548788    -0.047052    15.415171    -12.486642    11.662826    13.093574    11.375617    -0.761791    -19.686548    -10.752268    -18.034460    -40.623489    9.749538    -41.150398    -22.844143    -25.264410    -30.656733    -46.311729    -9.330231    2.525276    -1.301718    34.569736    6.743884    78.308548    8.063622    -0.532586    106.837952    3.206752    -10.836995    19.330544    21.561113    -23.764915    0.004211    -13.429954    24.085035    -10.000501    -8.892942    -2.403615    38.907097    0.000000    0.000000    0.000000    -19.392557    -6.393042    -3.394436    3.402764    26.052170    2.930583    5.635161    -24.158798    -7.834297    0.000000    0.000000    0.000000    
28.024982    154.806839    -31.933588    2.420610    0.939206    -56.648678    3.585769    -0.327014    1.602779    -0.696016    1.543828    0.539544    16.554914    -0.051870    15.438237    -12.491422    11.687858    13.118699    11.354681    -0.762347    -19.636831    -10.779949    -18.052687    -40.611328    9.711662    -41.118977    -22.857622    -25.231541    -30.643581    -46.292805    -9.326906    2.562560    -1.291603    34.540142    6.810619    78.335762    8.003472    -0.649616    106.852585    3.170719    -10.880776    19.303463    21.587490    -23.669926    0.038951    -13.444990    24.052570    -9.950605    -8.903250    -2.437834    38.946037    0.000000    0.000000    0.000000    -19.478428    -6.393058    -3.586045    3.439128    26.002268    2.883776    5.597007    -24.061823    -7.884401    0.000000    0.000000    0.000000    
28.037621    154.818802    -31.930817    2.416031    0.918870    -56.777409    3.569200    -0.337742    1.630140    -0.685474    1.561061    0.548414    16.574867    -0.058396    15.459704    -12.499646    11.708224    13.139128    11.349607    -0.783849    -19.598946    -10.800131    -18.058277    -40.586266    9.708302    -40.905964    -22.844339    -25.007826    -30.520008    -46.158134    -9.310665    2.604584    -1.273692    34.548107    6.854959    78.365219    7.978246    -0.731600    106.851662    3.203319    -10.922005    19.302954    21.608044    -23.584465    0.064621    -13.464571    24.008698    -9.862393    -8.902552    -2.441532    38.950600    0.000000    0.000000    0.000000    -19.560383    -6.408413    -3.826927    3.441872    25.988007    2.853964    5.546986    -23.955502    -8.003297    0.000000    0.000000    0.000000    
28.048309    154.832550    -31.932983    2.413137    0.902507    -56.906799    3.550954    -0.344360    1.664029    -0.667806    1.566662    0.559471    16.577091    -0.066888    15.473039    -12.497301    11.734185    13.154500    11.338048    -0.778571    -19.563477    -10.793375    -18.049849    -40.559181    9.692561    -40.915127    -22.843758    -25.003828    -30.538315    -46.142899    -9.299126    2.642502    -1.248198    34.585518    6.889802    78.382065    7.973043    -0.773383    106.846161    3.203950    -10.955349    19.299175    21.631159    -23.500746    0.130772    -13.461004    23.971203    -9.797990    -8.915556    -2.446788    38.929726    0.000000    0.000000    0.000000    -19.637793    -6.433655    -4.012910    3.474135    25.985126    2.686629    5.512126    -23.856726    -8.082505    0.000000    0.000000    0.000000    
28.056080    154.844482    -31.933403    2.410318    0.876543    -57.030350    3.527041    -0.353946    1.686746    -0.646597    1.581878    0.566735    16.559843    -0.077255    15.496542    -12.467849    11.761461    13.184367    11.322765    -0.786847    -19.520399    -10.791110    -18.023895    -40.527908    9.678252    -40.933937    -22.835550    -25.003910    -30.560909    -46.151371    -9.287791    2.662814    -1.219540    34.643475    6.917764    78.397781    7.988496    -0.774208    106.824799    3.190054    -10.975363    19.284557    21.647886    -23.409859    0.209843    -13.463353    23.926762    -9.748974    -8.925022    -2.451190    38.932171    0.000000    0.000000    0.000000    -19.721785    -6.436293    -4.193662    3.509002    25.953491    2.547301    5.468383    -23.784746    -8.162251    0.000000    0.000000    0.000000    
